<svg width="58" height="52" viewBox="0 0 58 52" fill="none" xmlns="http://www.w3.org/2000/svg">
<path d="M51.6478 40.1679H5.48029V4.58294C5.48029 3.15641 6.44437 1.99951 7.63314 1.99951H49.4949C50.6837 1.99951 51.6478 3.15508 51.6478 4.58294V40.1679Z" stroke="#3D3E40" stroke-width="4" stroke-miterlimit="10" stroke-linecap="round" stroke-linejoin="round"/>
<path d="M53.4228 49.9996H3.70336C3.4044 49.9996 3.11071 49.9052 2.8518 49.7258C2.59289 49.5464 2.37787 49.2885 2.22835 48.9778C2.07883 48.6671 2.00008 48.3147 2 47.956C1.99992 47.5972 2.07852 47.2448 2.2279 46.934L5.47877 40.168H51.6462L54.8971 46.934C55.0465 47.2448 55.1251 47.5972 55.125 47.956C55.1249 48.3147 55.0462 48.6671 54.8967 48.9778C54.7471 49.2885 54.5321 49.5464 54.2732 49.7258C54.0143 49.9052 53.7217 49.9996 53.4228 49.9996Z" stroke="#3D3E40" stroke-width="4" stroke-miterlimit="10" stroke-linecap="round" stroke-linejoin="round"/>
<path d="M17.8457 30.6252V40.1673" stroke="#3D3E40" stroke-width="4" stroke-miterlimit="10" stroke-linecap="round" stroke-linejoin="round"/>
<path d="M24.9913 25.1187V40.1676" stroke="#3D3E40" stroke-width="4" stroke-miterlimit="10" stroke-linecap="round" stroke-linejoin="round"/>
<path d="M32.1366 21.085V40.1678" stroke="#3D3E40" stroke-width="4" stroke-miterlimit="10" stroke-linecap="round" stroke-linejoin="round"/>
<path d="M39.2814 15.3867V40.1677" stroke="#3D3E40" stroke-width="4" stroke-miterlimit="10" stroke-linecap="round" stroke-linejoin="round"/>
<path d="M29.3019 45.085H27.8254" stroke="#3D3E40" stroke-width="4" stroke-miterlimit="10" stroke-linecap="round" stroke-linejoin="round"/>
<path d="M51.6478 40.1679H5.48029V4.58294C5.48029 3.15641 6.44437 1.99951 7.63314 1.99951H49.4949C50.6837 1.99951 51.6478 3.15508 51.6478 4.58294V40.1679Z" stroke="#3D3E40" stroke-width="4" stroke-miterlimit="10" stroke-linecap="round" stroke-linejoin="round"/>
<path d="M53.4228 49.9996H3.70336C3.4044 49.9996 3.11071 49.9052 2.8518 49.7258C2.59289 49.5464 2.37787 49.2885 2.22835 48.9778C2.07883 48.6671 2.00008 48.3147 2 47.956C1.99992 47.5972 2.07852 47.2448 2.2279 46.934L5.47877 40.168H51.6462L54.8971 46.934C55.0465 47.2448 55.1251 47.5972 55.125 47.956C55.1249 48.3147 55.0462 48.6671 54.8967 48.9778C54.7471 49.2885 54.5321 49.5464 54.2732 49.7258C54.0143 49.9052 53.7217 49.9996 53.4228 49.9996Z" stroke="#3D3E40" stroke-width="4" stroke-miterlimit="10" stroke-linecap="round" stroke-linejoin="round"/>
<path d="M17.8461 30.6255V40.1676" stroke="#3D3E40" stroke-width="4" stroke-miterlimit="10" stroke-linecap="round" stroke-linejoin="round"/>
<path d="M24.9911 25.1189V40.1679" stroke="#3D3E40" stroke-width="4" stroke-miterlimit="10" stroke-linecap="round" stroke-linejoin="round"/>
<path d="M32.137 21.0852V40.1681" stroke="#3D3E40" stroke-width="4" stroke-miterlimit="10" stroke-linecap="round" stroke-linejoin="round"/>
<path d="M39.2819 15.387V40.168" stroke="#3D3E40" stroke-width="4" stroke-miterlimit="10" stroke-linecap="round" stroke-linejoin="round"/>
<path d="M29.3019 45.0837H27.8254" stroke="#3D3E40" stroke-width="4" stroke-miterlimit="10" stroke-linecap="round" stroke-linejoin="round"/>
</svg>
