<svg width="48" height="50" viewBox="0 0 48 50" fill="none" xmlns="http://www.w3.org/2000/svg">
<path d="M41.4769 33.4087H14.8639C14.1924 33.4087 13.6059 32.8661 13.4347 32.087L7.16827 3.54889H1.4785C0.66163 3.54889 0 2.75494 0 1.77469C0 0.794444 0.66163 0.000488281 1.4785 0.000488281H8.30672C8.97821 0.000488281 9.56468 0.543099 9.73594 1.32227L11.4633 9.18643H45.9765C46.4348 9.18643 46.8661 9.44073 47.147 9.87689C47.4267 10.3116 47.5228 10.8778 47.407 11.4101L42.9074 32.084C42.7374 32.8646 42.1496 33.4102 41.4769 33.4102V33.4087ZM16.0036 29.8603H40.3348L44.0618 12.7348H12.2432L16.0036 29.8603Z" fill="#3D3E40"/>
<path d="M17.0791 49.9993C14.0358 49.9993 11.5605 47.029 11.5605 43.3771C11.5605 39.7252 14.0358 36.7549 17.0791 36.7549C20.1223 36.7549 22.5976 39.7252 22.5976 43.3771C22.5976 47.029 20.1223 49.9993 17.0791 49.9993ZM17.0791 40.3048C15.6671 40.3048 14.5176 41.6842 14.5176 43.3786C14.5176 45.0729 15.6659 46.4524 17.0791 46.4524C18.4923 46.4524 19.6406 45.0744 19.6406 43.3786C19.6406 41.6827 18.491 40.3048 17.0791 40.3048Z" fill="#3D3E40"/>
<path d="M38.1453 49.9993C35.1021 49.9993 32.6268 47.029 32.6268 43.3771C32.6268 39.7252 35.1021 36.7549 38.1453 36.7549C41.1886 36.7549 43.6639 39.7252 43.6639 43.3771C43.6639 47.029 41.1886 49.9993 38.1453 49.9993ZM38.1453 40.3048C36.7334 40.3048 35.5838 41.6842 35.5838 43.3786C35.5838 45.0729 36.7334 46.4524 38.1453 46.4524C39.5573 46.4524 40.7068 45.0744 40.7068 43.3786C40.7068 41.6827 39.5573 40.3048 38.1453 40.3048Z" fill="#3D3E40"/>
</svg>
