<svg width="49" height="50" viewBox="0 0 49 50" fill="none" xmlns="http://www.w3.org/2000/svg">
<path d="M5.89191 50.0005C4.63671 50.0005 4.07694 49.3428 4.07694 47.8672V44.5901C4.07694 38.0042 4.07572 31.1948 4.08427 24.4964C4.08427 24.1834 4.03783 24.0867 3.8215 23.9526C1.79019 22.6862 0.531322 20.6625 0.0791058 17.9379C-0.104225 16.8316 0.0289954 15.871 0.500766 14.9132C2.7154 10.4173 4.88359 5.87529 7.09578 1.23084C7.49422 0.394257 8.05644 0.00481541 8.86554 0.00481541H8.89731C9.69175 0.0149121 10.5583 0.0192392 11.6228 0.0192392C12.2107 0.0192392 12.7986 0.0192392 13.3877 0.0163544C13.9756 0.0163544 14.5647 0.0134697 15.1526 0.0134697H25.8664C29.8178 0.0149121 34.5086 0.0134697 39.3449 0.000488281C40.2628 0.000488281 40.869 0.42022 41.3163 1.36209C43.0555 5.02285 44.8424 8.73264 46.5706 12.3213C47.1646 13.5531 47.7573 14.7849 48.3501 16.0166C48.3745 16.0686 48.388 16.1263 48.388 16.1854V17.2874C48.388 17.3321 48.3806 17.3768 48.366 17.4172C48.3562 17.4446 48.3452 17.472 48.333 17.5009C48.3269 17.5153 48.3208 17.5283 48.3159 17.5427C47.97 20.4404 46.6867 22.6054 44.5001 23.98C44.3058 24.1026 44.2667 24.1877 44.2667 24.4877C44.2753 31.2005 44.274 38.0259 44.274 44.6262V47.8586C44.274 49.3384 43.7143 49.9991 42.4603 49.9991C36.3652 49.9991 30.27 49.9991 24.1761 49.9991C18.0822 49.9991 11.9858 49.9991 5.89191 49.9991V50.0005ZM10.573 46.5042V46.0902C10.573 44.7243 10.5754 43.3583 10.5778 41.9924C10.5827 38.8192 10.5876 35.5392 10.5656 32.3126C10.5448 29.4163 12.2046 27.1042 14.4266 26.9354C14.8886 26.9008 15.3921 26.8835 15.9653 26.8835C16.5385 26.8835 17.0739 26.8994 17.6129 26.9138C18.0284 26.9253 18.4574 26.9369 18.8778 26.9412C19.0734 26.9441 19.2616 27.0076 19.4119 27.0609C21.4029 27.7475 22.5946 29.65 22.5982 32.1496C22.6031 35.4743 22.6019 38.8538 22.6019 42.1222C22.6019 43.4838 22.6019 46.4955 22.6019 46.4955H41.3126V24.9464C38.4735 24.6363 37.8501 24.28 35.5793 21.6304C34.2544 23.7088 32.1327 24.9377 29.8312 24.9392C27.6093 24.9392 25.5731 23.7651 24.1883 21.7011C22.7767 23.7925 20.7967 24.9377 18.5735 24.9377C16.2953 24.9377 14.121 23.6843 12.7998 21.639C11.3209 23.8055 9.38131 24.9176 7.0249 24.9478V46.5042H10.5754H10.573ZM19.682 46.5042V43.5141C19.6845 39.7481 19.6857 35.8551 19.6796 32.0256C19.6784 31.0044 19.1088 30.3337 18.2313 30.3193C17.872 30.3135 17.487 30.3106 17.0189 30.3106C16.7109 30.3106 16.4029 30.3106 16.0949 30.3135C15.8138 30.3135 15.5314 30.3164 15.2503 30.3164C14.0061 30.3164 13.5209 30.8861 13.5209 32.3472C13.5209 35.6532 13.5209 38.9591 13.5209 42.265V46.5056H19.6845L19.682 46.5042ZM37.1987 17.8413C37.5531 19.7856 39.2117 21.3808 41.0523 21.476C41.1159 21.4789 41.1782 21.4804 41.2417 21.4804C43.1618 21.4804 44.7739 20.0034 45.2762 17.8413H37.1987ZM25.831 17.8225C26.161 19.8187 27.916 21.4573 29.8325 21.4789H29.8691C31.788 21.4789 33.5577 19.8404 33.9036 17.8225H25.831ZM14.4547 17.8254C14.836 19.8591 16.5715 21.4659 18.4831 21.4775H18.5051C20.4093 21.4775 22.146 19.8721 22.5347 17.8254H14.4547ZM3.08695 17.8326C3.58195 19.9716 5.1757 21.4486 7.07501 21.476H7.12878C9.0232 21.476 10.6365 19.9976 11.1645 17.8326H3.08695ZM44.1653 14.3031C44.1653 14.3031 43.3476 12.6054 42.9406 11.7631C41.683 9.15526 40.3838 6.45945 39.1176 3.79971C38.9966 3.54729 38.9037 3.48527 38.6421 3.48527C33.768 3.49104 28.8938 3.49393 24.0209 3.49393C19.1479 3.49393 14.4645 3.49104 9.68564 3.48671V3.14343L9.68441 3.48671C9.43753 3.48671 9.35442 3.54008 9.2432 3.77375C8.00266 6.38012 6.73035 9.02256 5.49958 11.577C5.06204 12.4857 4.62449 13.3944 4.18816 14.3031H44.1653Z" fill="#3D3E40"/>
<path d="M32.9187 41.0399C32.6034 41.0399 32.288 41.0399 31.9739 41.037C31.6598 41.037 31.3445 41.0341 31.0304 41.0341C31.0304 41.0341 30.3741 41.0341 30.06 41.0341C29.7446 41.0341 29.4293 41.0341 29.114 41.0341C28.7314 41.0341 28.3501 41.0341 27.9675 41.0298C25.715 41.011 24.2508 39.2801 24.2386 36.6218C24.23 34.8391 24.23 33.039 24.2386 31.2721C24.2508 28.5993 25.7175 26.8685 27.9737 26.8627C29.0199 26.8598 30.0661 26.8584 31.1123 26.8584C32.09 26.8584 33.0678 26.8598 34.0456 26.8627C36.2443 26.8699 37.733 28.6109 37.7513 31.1942C37.7647 33.0981 37.7647 34.9545 37.7513 36.7113C37.7317 39.3018 36.2944 40.9966 34.0908 41.0283C33.7009 41.0341 33.3098 41.0355 32.9199 41.0355L32.9187 41.0399ZM32.8307 37.581C33.2304 37.581 33.6312 37.581 34.0309 37.5781C34.6396 37.5753 34.8253 37.3589 34.8278 36.6565C34.8327 34.9314 34.8327 33.1169 34.8278 31.262C34.8253 30.5466 34.6359 30.3158 34.0468 30.3143C33.0226 30.3114 31.9996 30.31 30.9754 30.31C29.9512 30.31 28.949 30.3114 27.937 30.3158C27.3711 30.3172 27.1694 30.5538 27.167 31.2201C27.1609 32.9553 27.1609 34.7886 27.167 36.668C27.1694 37.3719 27.3491 37.5753 27.97 37.5796C28.3696 37.5825 28.7693 37.5825 29.169 37.5825H31.0011H32.8319L32.8307 37.581Z" fill="#3D3E40"/>
</svg>
