<svg width="34" height="40" viewBox="0 0 34 40" fill="none" xmlns="http://www.w3.org/2000/svg">
<path d="M11.016 7.65957C11.016 11.2356 8.6565 13.5691 6.38298 13.5691C4.10946 13.5691 1.75 11.2356 1.75 7.65957C1.75 4.0835 4.10946 1.75 6.38298 1.75C8.6565 1.75 11.016 4.0835 11.016 7.65957Z" stroke="#3D3E40" stroke-width="3.5"/>
<path d="M31.7469 7.65957C31.7469 11.2356 29.3875 13.5691 27.1139 13.5691C24.8404 13.5691 22.481 11.2356 22.481 7.65957C22.481 4.0835 24.8404 1.75 27.1139 1.75C29.3875 1.75 31.7469 4.0835 31.7469 7.65957Z" stroke="#3D3E40" stroke-width="3.5"/>
<path d="M11.016 32.3405C11.016 35.9166 8.6565 38.2501 6.38298 38.2501C4.10946 38.2501 1.75 35.9166 1.75 32.3405C1.75 28.7644 4.10946 26.4309 6.38298 26.4309C8.6565 26.4309 11.016 28.7644 11.016 32.3405Z" stroke="#3D3E40" stroke-width="3.5"/>
<path d="M31.7469 32.3405C31.7469 35.9166 29.3875 38.2501 27.1139 38.2501C24.8404 38.2501 22.481 35.9166 22.481 32.3405C22.481 28.7644 24.8404 26.4309 27.1139 26.4309C29.3875 26.4309 31.7469 28.7644 31.7469 32.3405Z" stroke="#3D3E40" stroke-width="3.5"/>
</svg>
