<svg width="17" height="16" viewBox="0 0 17 16" fill="none" xmlns="http://www.w3.org/2000/svg">
<path d="M9.8208 15.3162L16.5736 8.71617C16.6759 8.61617 16.7486 8.50784 16.7915 8.39117C16.8345 8.27451 16.8556 8.14951 16.855 8.01617C16.855 7.88284 16.8335 7.75784 16.7905 7.64117C16.7475 7.52451 16.6752 7.41617 16.5736 7.31617L9.8208 0.716174C9.63322 0.53284 9.39858 0.437174 9.11687 0.429174C8.83516 0.421174 8.59233 0.51684 8.38839 0.716174C8.18375 0.899507 8.07701 1.12884 8.06814 1.40417C8.05927 1.67951 8.15749 1.91684 8.36281 2.11617L13.3762 7.01617H1.94253C1.65264 7.01617 1.40947 7.11217 1.21302 7.30417C1.01658 7.49617 0.918695 7.73351 0.919377 8.01617C0.919377 8.29951 1.01726 8.53717 1.21302 8.72917C1.40879 8.92118 1.65195 9.01684 1.94253 9.01617H13.3762L8.36281 13.9162C8.17523 14.0995 8.07701 14.3328 8.06814 14.6162C8.05927 14.8995 8.15749 15.1328 8.36281 15.3162C8.55038 15.5162 8.78912 15.6162 9.07901 15.6162C9.3689 15.6162 9.61617 15.5162 9.8208 15.3162Z" fill="#308DD3"/>
</svg>
