<svg width="44" height="52" viewBox="0 0 44 52" fill="none" xmlns="http://www.w3.org/2000/svg">
<path d="M42.5099 50.7419C42.7739 50.4251 42.9164 50.0038 42.9164 49.5719C42.9164 49.1401 42.7739 48.7187 42.5099 48.4019L42.5099 48.4019L34.2477 38.4872C34.2672 38.4558 34.2864 38.4245 34.3054 38.3933H41.4762C41.8745 38.3933 42.2449 38.2031 42.51 37.885C42.7741 37.5681 42.9167 37.1467 42.9167 36.7148V2.42906C42.9167 1.99712 42.7741 1.5757 42.51 1.25886C42.2449 0.940694 41.8745 0.750488 41.4762 0.750488H2.19048C1.7922 0.750488 1.42177 0.940694 1.15663 1.25886C0.892596 1.5757 0.75 1.99712 0.75 2.42906V36.7148C0.75 37.1467 0.892596 37.5681 1.15663 37.885C1.42177 38.2031 1.7922 38.3933 2.19048 38.3933H17.6956C19.5787 41.4086 22.5868 43.3933 26 43.3933C28.3448 43.3933 30.5002 42.4519 32.2318 40.8892L40.4425 50.742C40.7184 51.0731 41.0917 51.2505 41.4762 51.2505C41.8603 51.2505 42.2337 51.0741 42.5099 50.7419ZM42.5099 50.7419L42.3179 50.5819L42.5101 50.7417C42.51 50.7418 42.51 50.7419 42.5099 50.7419ZM15.631 31.0005C15.631 32.4154 15.8394 33.7703 16.2071 35.0362H3.63095V12.6791H40.0357V35.0362H35.7937C36.1724 33.7394 36.367 32.3754 36.369 31.0009V31.0005C36.369 24.2113 31.7586 18.6076 26 18.6076C20.2414 18.6076 15.631 24.2113 15.631 31.0005ZM26 40.0362C21.9121 40.0362 18.5119 36.027 18.5119 31.0005C18.5119 25.9739 21.9121 21.9648 26 21.9648C30.0879 21.9648 33.4881 25.9739 33.4881 31.0005C33.4881 36.027 30.0879 40.0362 26 40.0362ZM40.0357 9.32192H3.63095V4.10763H40.0357V9.32192Z" fill="#3D3E40" stroke="#3D3E40" stroke-width="0.5"/>
<path d="M36.7146 5.28516H39.0956V8.1423H36.7146V5.28516ZM33.1432 5.28516H35.5242V8.1423H33.1432V5.28516ZM29.5718 5.28516H31.9527V8.1423H29.5718V5.28516ZM4.57178 5.28516H16.4765V8.1423H4.57178V5.28516Z" fill="#3D3E40"/>
</svg>
