<svg width="42" height="50" viewBox="0 0 42 50" fill="none" xmlns="http://www.w3.org/2000/svg">
<path d="M38.7638 17.4641H2.95286C2.94555 17.6673 2.93214 17.8589 2.93214 18.0505C2.93214 26.0821 2.92971 34.1122 2.93214 42.1438C2.93214 44.8244 4.3251 46.4974 6.55528 46.4989C11.1729 46.5033 15.7892 46.4989 20.4068 46.4989C20.5579 46.4989 20.7102 46.4916 20.8614 46.5033C21.7157 46.5705 22.3262 47.3412 22.2994 48.3108C22.2726 49.2555 21.6486 49.9794 20.8053 49.9809C15.916 49.9867 11.0254 50.0233 6.13605 49.9663C2.70303 49.9268 0.0426538 46.5778 0.030467 42.3822C0.0146242 37.2228 0.030467 32.0619 0.0255923 26.901C0.0207176 23.1616 0.00121868 19.4193 0 15.6755C0 13.0227 0.0158428 10.3713 0.0255923 7.71853C0.0414351 3.27278 2.74569 0.0115932 6.44925 0.007206C14.0331 -0.00303092 21.6182 0.00428116 29.202 0.00428116C31.2311 0.00428116 33.259 -0.00595575 35.2881 0.007206C38.5359 0.0262174 41.0488 2.5796 41.5996 6.41405C41.6533 6.78697 41.6654 7.17305 41.6654 7.55327C41.6691 14.0932 41.6703 20.6331 41.6667 27.1745C41.6667 28.3269 41.0512 29.0815 40.1701 29.0523C39.3475 29.0245 38.7686 28.2611 38.765 27.1584C38.7577 24.9239 38.7626 22.6893 38.7626 20.4532C38.7626 19.4764 38.7626 18.498 38.7626 17.4641H38.7638ZM38.7443 13.9236C38.7516 13.7261 38.7638 13.5653 38.7638 13.4059C38.765 11.5354 38.7699 9.665 38.7638 7.79457C38.7552 5.1827 37.3598 3.49507 35.1894 3.49361C25.6264 3.48922 16.0634 3.48922 6.50166 3.49361C4.33484 3.49361 2.94067 5.18708 2.93336 7.80042C2.92849 9.6533 2.93336 11.5047 2.93336 13.3576C2.93336 13.5346 2.93336 13.7115 2.93336 13.9236H38.7467H38.7443Z" fill="#3D3E40"/>
<path d="M35.9585 41.7415C37.0297 43.5768 38.0656 45.3185 39.0637 47.0924C39.2636 47.4463 39.3976 47.9202 39.4098 48.3443C39.4317 49.0901 38.982 49.7102 38.4068 49.9178C37.7999 50.1372 37.1626 49.8769 36.7701 49.2085C35.8439 47.6379 34.9299 46.0556 34.0111 44.4791C33.8819 44.2568 33.7478 44.0374 33.5833 43.761C33.4261 43.9936 33.2835 44.1954 33.1494 44.4045C32.495 45.4267 31.8442 46.4519 31.1874 47.4727C30.461 48.6016 29.5068 49.0872 28.3503 48.7303C27.2157 48.3808 26.5783 47.4332 26.376 46.0424C25.5595 40.4311 24.7332 34.8213 23.9106 29.21C23.7169 27.8865 24.0508 26.7853 24.9502 26.0015C25.8678 25.2015 26.8732 25.1694 27.8543 25.8421C30.8985 27.9319 33.9331 30.0436 36.9724 32.1465C38.0461 32.8895 39.1185 33.6367 40.1959 34.3738C41.2634 35.105 41.8021 36.193 41.6412 37.6657C41.4889 39.0682 40.7601 39.9251 39.6499 40.3419C38.4422 40.7953 37.2357 41.2545 35.9597 41.7371L35.9585 41.7415ZM29.1558 44.8915C29.3167 44.6531 29.413 44.5186 29.5032 44.3767C30.4342 42.9216 31.369 41.4724 32.2891 40.0085C32.5925 39.5274 32.9508 39.1925 33.4456 39.0272C34.2304 38.764 35.0031 38.4481 35.7806 38.1512C36.6202 37.831 37.4587 37.5078 38.3837 37.1524C34.5107 34.4703 30.7243 31.8467 26.8489 29.1647C27.6239 34.4498 28.3795 39.6049 29.1546 44.89L29.1558 44.8915Z" fill="#3D3E40"/>
<path d="M14.0552 8.70174C14.0601 9.65962 13.4276 10.4435 12.6354 10.4639C11.8469 10.483 11.1486 9.65085 11.1572 8.70027C11.1657 7.7497 11.814 6.9834 12.6123 6.9834C13.4166 6.9834 14.0515 7.73801 14.0564 8.70174H14.0552Z" fill="#3D3E40"/>
<path d="M16.0151 8.71199C16.0151 7.73948 16.639 6.9878 17.447 6.98195C18.244 6.97757 18.8985 7.73948 18.9131 8.68859C18.9289 9.64062 18.2379 10.4757 17.4446 10.464C16.6573 10.4523 16.0151 9.66549 16.0151 8.71199Z" fill="#3D3E40"/>
<path d="M9.21939 8.7267C9.21452 9.6685 8.55399 10.4597 7.77038 10.4626C6.97215 10.4655 6.30066 9.64071 6.3165 8.67698C6.33234 7.72349 6.98312 6.97473 7.78744 6.98497C8.58202 6.9952 9.22549 7.7776 9.21939 8.7267Z" fill="#3D3E40"/>
</svg>
